<svg xmlns="http://www.w3.org/2000/svg" width="1024" height="1024"><path d="M512 42c-124.7 0-244.2 49.5-332.3 137.7C91.5 267.7 42 387.3 42 512c0 75.4 18.2 149.6 53 216.5 70.6-133 62-217.3 197.7-387C353 190 401.7 121.5 442 88l55.5 172.2 107-106c6 96 13.3 177.5 9.4 266.6 74 67.2 168 132.5 268 196L805.3 717c-52.4 5.2-144-10-215.6-15.4l169.4 209.7C897.7 825.7 982 674.7 982 512c0-124.7-49.5-244.2-137.7-332.3C756.3 91.5 636.7 42 512 42z" fill="#d10"/><path d="M139 790.7c166.5 216 378.7 210.5 544 158.2L518.8 666l277.5 28 41.4-50.8-20-43.8c-88.5-50-157.3-105.6-225.7-161 .2-78 4-154-1.4-235l-100.2 95-52-166.3c-60.6 37.6-93.4 139.8-130 233.6-97.3 84.6-126.3 264.5-169 425z" fill="#fff"/><path d="M874 150C778 54 647.8 0 512 0S246 54 150 150 0 376.2 0 512s54 266 150 362 226.2 150 362 150 266-54 362-150 150-226.2 150-362-54-266-150-362zM186 838c-14.4-14.6-27.6-30.2-39.8-46.4 39.2-165.8 87.4-363.8 165.4-422.2C352.2 298.6 364 194 437.2 139c18.4 55 47 169 66.8 223.8 86.4 86.4 217.4 193.8 305 238.4 9.2 5.2 21 42 21 42l-35.4 44.6-377-38c-32.8-2.6-64.2 0-103.4 6.4 18.4-45.8 57.6-82.6 57.6-82.6s-36.6-22.2-64.2-26.2c8-18.4 28.8-42 34-48.4-10.4 4-86.4 38-94.4 66.8 36.6 9.2 62.8 21 62.8 21s-40.6 40.6-48.4 111.2c0 0 120.4-18.4 210.8-6.4 2.6 1.4 4 1.4 5.2 1.4l47 1.4 149.6 248.8c-51.6 19.4-106.4 30.2-162.6 30.2-121.8-.4-239.2-49-325.6-135.4zm326-552.6c35.4-34 40.6-39.2 74.6-72 2.6 65.4 1.4 99.4-2.6 179.4-19.6-19.6-59-44.6-59-44.6s-7.8-46-13-62.8zm326 552.4c-24.8 24.8-52.4 46-81.6 64.4l-158-196.6 131 14.4s63 6.6 77.2 0c13-5.2 83.8-104.8 83.8-104.8s-203-128.4-272.4-199c8-119.2-9.7-274.2-9.7-274.2s-56 59.5-107 106.7c-22.5-72-34-99.3-56-171.5-67 55-118 148.2-154.7 256.8-84 93-145 247.2-193 378.4C67.6 650.4 51 582.2 51 512c0-122.2 48.6-239.4 135-326C272.4 99.6 389.8 51 512 51c122.2 0 239.6 48.6 326 135s135 203.6 135 326-48.6 239.4-135 326zm-278-296c23.4-6.4 26-7.6 49.2-14.2-29.8-22-62.2-45.2-106-38.8-4 11.6-7.8 20.6-10.4 33.6 20.8-2.6 42.6 5.2 67.2 19.4z"/></svg>